<!-- Generated by IcoMoon.io -->
<svg version="1.1" xmlns="http://www.w3.org/2000/svg" width="1024" height="1024" viewBox="0 0 1024 1024">
<title></title>
<g id="progress-bar">
</g>
<path fill="#000" d="M69.612 445.071c0-44.319 39.404-44.605 39.404-104.202 0-30.761-13.742-50.493-17.992-136.1-0.092-1.915-7.383-3.318-7.731-1.526-0.492 2.519 2.642 137.964 2.058 141.404-0.42 2.519-7.844 2.744-8.407-0.184-0.512-2.611-4.905-136.079-5.325-140.605-0.348-3.789-7.741-2.683-8.96-1.505 0 0-0.184 141.24-0.389 142.725-0.338 2.447-8.417 2.54-8.909 0-0.276-1.475-0.389-142.735-0.389-142.735-1.219-1.167-8.602-2.273-8.96 1.505-0.42 4.526-4.813 137.994-5.325 140.605-0.563 2.929-7.987 2.703-8.407 0.184-0.584-3.43 2.56-138.875 2.058-141.404-0.348-1.792-7.639-0.389-7.731 1.526-4.25 85.606-17.992 105.339-17.992 136.1 0 59.597 39.393 59.884 39.404 104.202 0 37.571 0.256 160.297 0 166.083-2.417 53.412-22.917 112.824-22.917 162.478 0 42.025 33.812 42.025 33.812 42.025v0c0 0 0.348 0 0.901-0.020 0.563 0.020 0.901 0.020 0.901 0.020v0c0 0 33.812 0 33.812-42.025 0-49.674-20.5-109.036-22.927-162.478-0.246-5.775 0.010-128.512 0.010-166.072z"></path>
<path fill="#000" d="M1018.276 343.849c0-50.36-22.354-139.663-61.44-139.663v0c-39.096 0-61.44 89.293-61.44 139.663 0 59.535 50.186 60.293 50.186 104.561 0 37.53 0.256 160.154 0 165.888-2.488 53.371-23.654 112.691-23.654 162.324 0 41.984 34.877 41.984 34.877 41.984v0c0 0 34.877 0 34.877-41.984 0-49.633-21.156-108.954-23.654-162.324-0.246-5.755 0-128.369 0-165.888 0.051-44.268 50.248-45.015 50.248-104.561z"></path>
<path fill="#000" d="M508.59 139.95c-197.939 0-358.4 160.461-358.4 358.4s160.461 358.4 358.4 358.4 358.4-160.461 358.4-358.4-160.461-358.4-358.4-358.4zM508.59 754.35c-141.384 0-256-114.606-256-256 0-141.384 114.616-256 256-256 141.394 0 256 114.616 256 256 0 141.394-114.606 256-256 256z"></path>
<path fill="#000" d="M749.23 498.35c0 132.902-107.738 240.64-240.64 240.64s-240.64-107.738-240.64-240.64c0-132.902 107.738-240.64 240.64-240.64s240.64 107.738 240.64 240.64z"></path>
</svg>


